<?xml version="1.0" encoding="utf-8"?>
<!-- Generator: Adobe Illustrator 22.0.1, SVG Export Plug-In . SVG Version: 6.00 Build 0)  -->
<svg version="1.1" id="Layer_1" xmlns="http://www.w3.org/2000/svg" xmlns:xlink="http://www.w3.org/1999/xlink" x="0px" y="0px"
	 viewBox="0 0 1920 382" style="enable-background:new 0 0 1920 382;" xml:space="preserve">
<style type="text/css">
	.st0{fill:none;stroke:#000000;stroke-width:12;stroke-miterlimit:10;}
	.st1{fill:#202020;stroke:#000000;stroke-width:12;stroke-miterlimit:10;}
</style>
<path class="st0" d="M1303.7,259.3"/>
<path class="st0" d="M1303.7,259.3"/>
<g>
	<g>
		<path class="st1" d="M220.8,28.6c-27.9,27.8-50.3,60.2-68.4,95.1c-16.8,32.4-30,66.5-44.6,99.9c-8.4,19.2-17.2,38.1-27.3,56.5
			c-2.8,5.1,5,9.6,7.8,4.5c35.2-64.1,54.9-135.8,95.7-197c12.6-19,27.1-36.6,43.3-52.7C231.2,30.8,224.9,24.5,220.8,28.6L220.8,28.6
			z"/>
	</g>
</g>
<g>
	<g>
		<path class="st1" d="M96.2,38.4c58.7-1.3,117.4-2.5,176.1-0.7c28.8,0.9,57.6,2.4,86.3,5.2c13.1,1.3,26.2,3,38.8,6.7
			c10.6,3.1,21.7,7.8,28.8,16.6c11.7,14.4,3.6,32-9,42.5c-18.1,15.1-42.7,22.6-65.1,28.4c-51.7,13.4-106.1,19.4-159.3,21.5
			c-59.3,2.3-119.4-1.4-177.1-15.8c-5.6-1.4-8,7.3-2.4,8.7C67.7,165,124.2,169.3,180.1,168c56-1.3,113-7.3,167.6-20.5
			c24-5.8,49.1-13.3,69.6-27.6c14.6-10.2,27.4-26.8,22.9-45.6c-5.2-21.6-29.2-31-48.5-35.4c-28.3-6.3-58.1-7.3-87-8.8
			c-69.4-3.6-139-2.1-208.4-0.6C90.5,29.5,90.4,38.5,96.2,38.4L96.2,38.4z"/>
	</g>
</g>
<g>
	<g>
		<path class="st1" d="M161.5,235.8c14.7-0.5,29.5-2.4,43.7-6.1c6.4-1.7,12.7-3.7,18.8-6.2c5.4-2.2,11.7-4.5,16.1-8.3
			c3.4-2.9,5.2-7.3,2.6-11.4c-2.6-4.1-8.1-5.8-12.6-6.8c-12.1-2.6-25.4-0.9-37.2,2.8c-10.8,3.4-21.5,9-29.2,17.3
			c-8.3,9-11.9,20.6-12.3,32.7c-0.2,5.4-0.8,12.3,1.1,17.4c1.7,4.7,6.5,7,11.1,7.8c12.3,2.1,25.8-2.4,37.5-5.9
			c14.3-4.2,27.1-10.3,37.8-21c12.1-12.1,22.9-25.8,34.2-38.7c3.8-4.3-2.5-10.7-6.4-6.4c-8.5,9.8-17.1,19.5-25.6,29.3
			c-6.6,7.5-13.3,14.9-22,19.9c-10,5.8-21.4,8.6-32.5,11.4c-4.4,1.1-8.9,2.2-13.4,2.6c-3.3,0.3-10.8,1.2-12.4-2.7
			c-0.7-1.8-0.3-4.9-0.4-6.8c-0.1-2.4-0.1-4.7,0-7.1c0.2-5.4,1-10.8,3-15.9c3.4-8.5,10.1-14.8,17.9-19.3c9-5.3,19.4-8.4,29.8-9.5
			c4.8-0.5,9.6-0.7,14.4,0.1c2,0.3,4.1,0.7,6,1.5c0.8,0.3,1.8,1,2.6,1.2c0.4,0.2,0.7,0.4,0.9,0.7c-0.1-1-0.4-1.1-1-0.2
			c-20.9,13.3-48.3,17.5-72.6,18.3C155.7,227,155.7,236,161.5,235.8L161.5,235.8z"/>
	</g>
</g>
<g>
	<g>
		<path class="st1" d="M269.1,204.8c-9,19-18,38-27,57c2.7,1.2,5.5,2.3,8.2,3.5c5-16.1,15-29.9,27.1-41.5c6.3-6,13.2-12.4,21.1-16.3
			c5.4-2.7,17.8-5.7,22.4,0c3.7,4.5,10-1.9,6.4-6.4c-5.2-6.3-16.4-6.3-23.7-4.9c-10.7,2.1-19.5,9.6-27.5,16.5
			c-15.5,13.5-28.4,30.3-34.5,50c-1.5,4.8,6,8.1,8.2,3.5c9-19,18-38,27-57C279.3,204.1,271.6,199.5,269.1,204.8L269.1,204.8z"/>
	</g>
</g>
<g>
	<g>
		<path class="st1" d="M350.7,203.3c-8.4,19.3-15.3,39.1-20.2,59.5c2.9,0.4,5.9,0.8,8.8,1.2c-0.1-14.4,4.2-30.7,13.9-41.7
			c9.5-10.8,25.8-14.6,39.6-12.2c5.7,1,8.1-7.7,2.4-8.7c-16.5-2.9-35.6,1-47.4,13.4c-12.1,12.7-17.6,32-17.5,49.1
			c0,5,7.6,6.2,8.8,1.2c4.7-19.7,11.2-38.8,19.3-57.4C360.8,202.6,353,198,350.7,203.3L350.7,203.3z"/>
	</g>
</g>
<g>
	<g>
		<path class="st1" d="M417.2,209.5c0.1,11.3,0.2,22.6,0.3,33.9c0,2.5,2,4.4,4.5,4.5c16,0.6,32.9-3.1,46.2-12.3
			c13.1-9,19-22.5,23.1-37.4c-2.9,0-5.8,0-8.7,0c3,17.6,6.5,35.3,8.9,53c2.2,16.1,1.4,32.6-10,45.3c-10,11.2-24.2,18.4-37.7,24.4
			c-15.9,7-32.5,12.4-49.2,17.2c-34.7,10.2-70.3,17.4-106.1,21.9c-33.7,4.2-69.3,7.6-102.8,0.5c-16.7-3.5-32.9-10.1-45.2-22.3
			c-9.5-9.4-15.8-21.3-20.6-33.6c-2.1-5.3-10.8-3-8.7,2.4c4.6,11.6,10.1,22.8,18.1,32.4c9.8,11.7,22.9,19.9,37.2,25.1
			c33.6,12.2,72,10,106.9,6.3c38.6-4.1,76.9-10.9,114.2-21.3c18-5,35.9-10.6,53.2-17.6c15.2-6.2,30.6-13.5,42.8-24.7
			c13.8-12.6,19-29.7,17.8-48c-1.5-21.2-6.5-42.4-10.1-63.4c-0.8-4.5-7.6-4-8.7,0c-3.6,13-8.3,25.1-20.1,32.8
			c-12,7.8-26.4,10.9-40.5,10.3c1.5,1.5,3,3,4.5,4.5c-0.1-11.3-0.2-22.6-0.3-33.9C426.2,203.7,417.2,203.7,417.2,209.5L417.2,209.5z
			"/>
	</g>
</g>
<g>
	<g>
		<path class="st1" d="M838.3,54.6c-40.3-0.8-80.5-1-120.8-0.6c-19.8,0.2-39.6,0.5-59.4,1c-19.3,0.5-38.8,0.4-57.9,3.3
			c-14.7,2.2-32.4,6.5-42.8,18.1c-10.8,12.1-4.5,26.6,6.3,36.2c20.8,18.5,50.9,24.6,77.6,28.4c35,5,70.4,5.8,105.6,7.5
			c20.2,0.9,40.4,1.9,60.6,2.8c19.7,0.9,39.6,1.1,59.2,3c8.3,0.8,17.3,2.3,24.2,7.4c5.2,3.9,8.5,9.7,10.5,15.8
			c3.7,10.9,5.6,23.1,2.4,34.4c-9,32.7-53.1,35.1-80.7,36c-76.2,2.4-153.5-6-227.3-25c-8.7-2.2-17.4-4.7-26-7.2
			c-5.6-1.7-7.9,7-2.4,8.7c72.7,21.6,148.8,32,224.6,32.8c18.7,0.2,37.6,0.3,56.1-2c15.9-1.9,32.6-5.5,45.8-15
			c21.3-15.3,24-41.5,16.1-65c-4.6-13.6-13.8-23.3-27.8-27.2c-8.5-2.4-17.5-2.9-26.3-3.3c-9.9-0.5-19.7-0.9-29.6-1.4
			c-40.3-1.9-80.6-3.7-120.9-5.6c-32.2-1.5-65.2-3.5-96.4-12.3c-12.8-3.6-25.8-8.5-36.4-16.8c-5.5-4.3-12.8-11-12.3-18.6
			c0.5-6.9,7.7-11.5,13.3-14.4c16.3-8.6,36-9.8,54.1-10.6c20-0.8,40-1.1,59.9-1.5c40.3-0.7,80.5-0.7,120.8-0.2
			c9.9,0.1,19.8,0.3,29.7,0.5C844.1,63.7,844.1,54.7,838.3,54.6L838.3,54.6z"/>
	</g>
</g>
<g>
	<g>
		<path class="st1" d="M964.4,62.2c-3.4,65.1-6.4,131,10.1,194.7c1.4,5.6,10.1,3.2,8.7-2.4c-16.3-62.9-13.2-128.1-9.8-192.3
			C973.7,56.4,964.7,56.4,964.4,62.2L964.4,62.2z"/>
	</g>
</g>
<g>
	<g>
		<path class="st1" d="M920.4,129.9c38.1,0,76.3,0,114.4,0c5.8,0,5.8-9,0-9c-38.1,0-76.3,0-114.4,0
			C914.6,120.9,914.6,129.9,920.4,129.9L920.4,129.9z"/>
	</g>
</g>
<g>
	<g>
		<path class="st1" d="M1220.8,38.2c-27.9,27.8-50.3,60.2-68.4,95.1c-16.8,32.4-30,66.5-44.6,99.9c-8.4,19.2-17.2,38.1-27.3,56.5
			c-2.8,5.1,5,9.6,7.8,4.5c35.2-64.1,54.9-135.8,95.7-197c12.6-19,27.1-36.6,43.3-52.7C1231.2,40.4,1224.9,34.1,1220.8,38.2
			L1220.8,38.2z"/>
	</g>
</g>
<g>
	<g>
		<path class="st1" d="M1096.2,48c58.7-1.3,117.4-2.5,176.1-0.7c28.8,0.9,57.6,2.4,86.3,5.2c13.1,1.3,26.2,3,38.8,6.7
			c10.6,3.1,21.7,7.8,28.8,16.6c11.7,14.4,3.6,32-9,42.5c-18.1,15.1-42.7,22.6-65.1,28.4c-51.7,13.4-106.1,19.4-159.3,21.5
			c-59.3,2.3-119.4-1.4-177.1-15.8c-5.6-1.4-8,7.3-2.4,8.7c54.4,13.5,110.9,17.8,166.8,16.5c56-1.3,113-7.3,167.6-20.5
			c24-5.8,49.1-13.3,69.6-27.6c14.6-10.2,27.4-26.8,22.9-45.6c-5.2-21.6-29.2-31-48.5-35.4c-28.3-6.3-58.1-7.3-87-8.8
			c-69.4-3.6-139-2.1-208.4-0.6C1090.5,39.1,1090.4,48.1,1096.2,48L1096.2,48z"/>
	</g>
</g>
<g>
	<g>
		<path class="st1" d="M1151.3,228.1c-8.4,19.3-15.3,39.1-20.2,59.5c2.9,0.4,5.9,0.8,8.8,1.2c-0.1-14.4,4.2-30.7,13.9-41.7
			c9.5-10.8,25.8-14.6,39.6-12.2c5.7,1,8.1-7.7,2.4-8.7c-16.5-2.9-35.6,1-47.4,13.4c-12.1,12.7-17.6,32-17.5,49.1
			c0,5,7.6,6.2,8.8,1.2c4.7-19.7,11.2-38.8,19.3-57.4C1161.4,227.4,1153.6,222.8,1151.3,228.1L1151.3,228.1z"/>
	</g>
</g>
<g>
	<g>
		<path class="st1" d="M1233.7,229.7c-15.4,1.6-32.4,9-36.6,25.4c-1.7,6.5-2.8,17.1,1.7,22.7c4.7,5.8,13.8,7.1,20.8,7.8
			c16,1.5,35.1-1.9,48-12c5.4-4.2,9.3-10.1,9.5-17.1c0.2-8.6-5.2-16.3-10.7-22.3c-6.1-6.6-13.9-11.3-23.1-11.4
			c-6.5,0-15.9,2-16.5,9.8c-0.5,5.8,8.5,5.7,9,0c-0.1,1.3,2.3-0.2,3.3-0.4c1.4-0.3,2.8-0.4,4.2-0.4c3.7,0,7.3,1.2,10.4,3.1
			c5.9,3.8,12,10.8,13.9,17.7c3.8,14.2-16.2,20.6-26.5,22.8c-7.5,1.6-15.4,2.1-23,1.1c-3.4-0.4-7.4-1.1-10.4-2.9
			c-3.2-1.9-2.7-5.4-2.6-8.7c0.2-16.4,13.7-24.4,28.7-26C1239.4,238.1,1239.5,229.1,1233.7,229.7L1233.7,229.7z"/>
	</g>
</g>
<g>
	<g>
		<path class="st1" d="M1387,240.6c-0.1,7.3-0.2,14.6-0.2,21.9c-0.1,5.4-1.1,11.9,0.4,17.2c3.3,11,18.1,9.1,26.2,5.8
			c19.3-7.9,35.7-30,35.2-51.2c-0.2-5.8-9-5.8-9,0c0,9.1-0.1,18.3-0.1,27.4c0,3.9,0,7.8,0,11.7c0,3.1-0.5,6.3,1.6,8.8
			c7.7,9.4,24.6-4.4,30.8-9.3c9.7-7.5,17.8-16.7,26.4-25.3c9.7-9.6,20.3-17.6,32.8-23.2c-1.5-2.6-3-5.2-4.5-7.8
			c-15.9,9.7-60.5,34.6-36.3,57.3c19.1,17.9,54.8,10.9,70.1-8.5c3.6-4.5-2.8-10.9-6.4-6.4c-12.2,15.5-40.3,22.8-56.5,9.3
			c-8-6.6-4.9-14.4,1.5-21c9.1-9.3,21-16.3,32-23c5.1-3.1,0.6-10.1-4.5-7.8c-20.9,9.3-34.8,25.6-51,41.1c-3.8,3.7-7.8,7.2-12.1,10.3
			c-4.4,3.2-9.8,7.6-15.4,8c0.1,0.4,0.2,0.8,0.3,1.2c0-1,0-2,0-2.9c0-2,0-3.9,0-5.9c0-3.6,0-7.2,0-10.8c0-7.8,0.1-15.7,0.1-23.5
			c-3,0-6,0-9,0c0.5,16.8-11.7,32.8-25.8,41c-3.5,2-7.7,3.6-11.7,3.8c-1.6,0.1-4.7,0-5.9-1.5c-0.9-1.1-0.5-3.5-0.4-4.7
			c0.1-10.8,0.2-21.5,0.4-32.3C1396.1,234.8,1387.1,234.8,1387,240.6L1387,240.6z"/>
	</g>
</g>
<g>
	<g>
		<path class="st1" d="M1555.1,267.9c20-21.6,33.7-49.1,31.4-79.1c-0.4-4.8-7.6-6.4-8.8-1.2c-3.8,16.5-7.5,33-11.3,49.5
			c-1.8,8.1-3.7,16.2-5.5,24.3c-1.3,5.6-4.3,12.8-0.5,18.1c3.4,4.7,10.2,5.6,15.5,6.1c7,0.5,14.3-0.2,21.2-1.7
			c11.2-2.4,22.6-7.5,30.9-15.6c11.2-10.9,12.8-25.7,12.9-40.5c0-4.9-8-6.3-8.8-1.2c-1.8,10.4-3.1,21.2-3,31.8
			c0.1,8.1,4.9,13,12.4,15.3c17.3,5.3,34.4-1.7,49-10.7c4.9-3,0.4-10.8-4.5-7.8c-11.6,7.2-24.1,13-38.1,10.7
			c-2.4-0.4-5.2-0.9-7.2-2.3c-3.3-2.3-2.5-6.1-2.4-9.7c0.3-8.4,1.2-16.7,2.6-25c-2.9-0.4-5.9-0.8-8.8-1.2c0,13.8-1.4,27.4-13,36.6
			c-10.5,8.4-24.7,12.2-38,12.4c-3.3,0-6.8,0-10-1c-5.2-1.6-2.8-5.9-1.8-10c1.9-8.4,3.8-16.8,5.8-25.3c3.8-16.8,7.7-33.7,11.5-50.5
			c-2.9-0.4-5.9-0.8-8.8-1.2c2.2,27.7-10.3,52.8-28.7,72.7C1544.8,265.8,1551.1,272.1,1555.1,267.9L1555.1,267.9z"/>
	</g>
</g>
<g>
	<g>
		<path class="st1" d="M1712.4,227.5c-8.2,5.4-36.1,25.5-19.3,35.2c7.7,4.5,17,7.1,25.6,9.5c8.5,2.4,18.2,5.1,27.1,2.9
			c14.2-3.5,26.3-22,23.6-36.3c-3.2-16.4-23.5-21.2-37.7-21.6c-14.3-0.4-38,4.5-40,22.1c-0.7,5.7,8.4,5.7,9,0c0.7-6,9.7-9.6,14.4-11
			c7.5-2.3,15.7-2.7,23.4-1.5c6.2,1,13.4,2.8,18.2,7.1c6.2,5.7,4.3,14.3,0.4,20.7c-4.3,7-10.5,12.6-19.1,12.2
			c-8.2-0.3-16.7-3.1-24.5-5.6c-3.9-1.3-7.8-2.7-11.7-4.4c-0.8-0.3-5.1-1.8-5.3-2.7c0.2,1,1.9-2,2-2.2c4.9-6.8,11.6-12.2,18.5-16.7
			C1721.8,232.1,1717.3,224.3,1712.4,227.5L1712.4,227.5z"/>
	</g>
</g>
<g>
	<g>
		<path class="st1" d="M1769.6,221.9c0.3,21.4,0.7,42.8,1,64.2c0.1,4.9,7.7,6.3,8.8,1.2c2.7-12.3,6.1-24.4,10.2-36.3
			c2.9-8.2,5.3-19.3,13.3-24.2c8.6-5.3,23.3-3.5,29.7,4.7c7.3,9.5,6.3,24,2.7,34.6c-1.9,5.5,6.8,7.8,8.7,2.4
			c4.5-12.8,4.6-29.1-3-40.9c-7.2-11.1-22.9-15-35.3-11.7c-11.2,3-16.7,11.6-20.7,21.8c-6,15.3-10.7,31-14.2,47.1
			c2.9,0.4,5.9,0.8,8.8,1.2c-0.3-21.4-0.7-42.8-1-64.2C1778.5,216.1,1769.5,216,1769.6,221.9L1769.6,221.9z"/>
	</g>
</g>
<g>
	<g>
		<path class="st1" d="M1550,242c15.8-14.5,36.3-23,56.7-28.6c5.6-1.5,3.2-10.2-2.4-8.7c-22,6-43.8,15.3-60.7,30.9
			C1539.4,239.5,1545.8,245.9,1550,242L1550,242z"/>
	</g>
</g>
<g>
	<g>
		<path class="st1" d="M1639.8,207.3c5.8,0,5.8-9,0-9S1634,207.3,1639.8,207.3L1639.8,207.3z"/>
	</g>
</g>
<g>
	<g>
		<path class="st1" d="M1844.4,269.6c0.6,11.2,14.8,14.9,23.8,15.9c11.9,1.4,26.4-1.7,34.3-11.5c7-8.9,4.2-21.2-7.9-23.2
			c-11.2-1.8-34.6,6.3-35.5-11.9c-0.2-3.7-0.5-8.2,1.6-11.5c2-3.2,6-4.8,9.5-5.6c8.7-2,16.3,1.6,23.4,6.4c4.8,3.3,9.3-4.5,4.5-7.8
			c-10.7-7.3-23.3-11-35.8-5.4c-11.6,5.2-14.3,17.9-11.6,29.5c3,12.9,17.5,16.4,29,15.6c4-0.3,16.8-3.1,17.7,2.9
			c0.7,4.5-4.7,8.3-8,10.1c-6.7,3.6-14.7,4.4-22.1,3.2c-3.1-0.5-13.7-2.3-13.9-6.8C1853.1,263.8,1844.1,263.8,1844.4,269.6
			L1844.4,269.6z"/>
	</g>
</g>
<g>
	<g>
		<path class="st1" d="M1356,212.9c-10.8-0.1-21.5-0.2-32.3-0.3c-9.1-0.1-15.8,0.6-20.1,9.5c-4.3,8.9-7.7,18.4-10.1,28
			c-2.2,8.4-5.2,18.9-3,27.6c2,7.9,9.1,13,16.9,14.1c8.9,1.3,17.5-2.5,25.2-6.6c7.5-3.9,14.8-8.7,20.1-15.3
			c5.7-7.2,8.2-15.7,9.2-24.7c1.3-11.7,0.8-23.7,0.4-35.4c-0.4-12.8-1.3-25.6-2.7-38.3c-0.6-5.7-9.4-5.8-9,0
			c2.9,39.1,8.8,78,17.8,116.1c1.3,5.6,10,3.2,8.7-2.4c-8.8-37.4-14.7-75.4-17.5-113.8c-3,0-6,0-9,0c1.9,17.6,2.9,35.3,2.9,53.1
			c0,15.7,0.6,32.8-12.1,44.1c-5.2,4.6-11.6,8.1-17.9,11.1c-6.5,3-15.3,5.7-21.5,0.5c-6.1-5.1-2.7-16-1.3-22.5
			c1.7-7.9,4-15.6,7-23.1c1.3-3.4,2.8-9.3,5.7-11.8c2.9-2.5,9.4-1.2,12.9-1.2c9.8,0.1,19.6,0.2,29.4,0.2
			C1361.8,221.9,1361.8,212.9,1356,212.9L1356,212.9z"/>
	</g>
</g>
</svg>
